<svg version="1.1" id="Layer_1" xmlns="http://www.w3.org/2000/svg" xmlns:xlink="http://www.w3.org/1999/xlink" x="0px" y="0px"
	 width="100%" viewBox="0 0 457 237" enable-background="new 0 0 457 237" xml:space="preserve">
<path fill="#A6A6A6" opacity="1.000000" stroke="none" 
	d="
M341.000000,238.000000 
	C227.333359,238.000000 114.166710,238.000000 1.000046,238.000000 
	C1.000030,159.000031 1.000030,80.000069 1.000015,1.000051 
	C77.166618,1.000000 153.333237,1.000000 229.499863,1.000000 
	C305.666504,1.000000 381.833160,1.000000 457.999878,1.000000 
	C457.999908,79.999924 457.999908,158.999847 457.999939,237.999878 
	C419.166656,238.000000 380.333344,238.000000 341.000000,238.000000 
M170.573029,138.500092 
	C170.573318,108.170280 170.236252,77.834328 170.788193,47.514557 
	C170.945114,38.894806 167.974823,33.474762 160.641113,30.019218 
	C143.487244,21.936552 126.352180,13.803323 109.012756,6.135466 
	C106.116661,4.854751 101.878197,4.818613 98.860916,5.893750 
	C79.387047,12.832814 60.555363,21.232780 42.916706,32.147274 
	C38.066368,35.148579 36.116226,39.080456 36.139751,44.954670 
	C36.337997,94.447983 36.438690,143.943863 36.060368,193.435089 
	C36.000816,201.225082 38.491879,206.187607 45.147400,209.444092 
	C59.487831,216.460739 73.927254,223.280212 88.173851,230.481689 
	C97.869514,235.382721 107.196960,236.310104 117.215523,231.116562 
	C132.557098,223.163574 148.245422,215.882278 163.685883,208.115692 
	C168.463211,205.712708 170.787140,201.828720 170.689850,195.991425 
	C170.376083,177.165573 170.572235,158.331192 170.573029,138.500092 
M208.042984,160.255905 
	C200.837494,159.533005 193.638763,158.702469 186.416351,158.249435 
	C185.673126,158.202820 184.140442,160.378448 184.081192,161.577606 
	C183.818649,166.892227 183.957733,172.226822 183.956207,177.554184 
	C183.953949,185.496414 183.955627,193.438660 183.955627,201.543945 
	C187.640137,201.543945 190.649551,201.543945 194.214905,201.543945 
	C194.214905,196.373306 194.214905,191.657501 194.214905,186.941711 
	C197.553818,189.545013 200.368698,192.237961 202.076614,195.508896 
	C205.974640,202.974167 212.136322,202.726212 219.676682,201.489136 
	C214.732330,195.482224 210.177017,189.947983 205.621765,184.413803 
	C215.898529,176.707886 216.814850,167.653000 208.042984,160.255905 
M356.040924,114.800842 
	C356.046539,117.961555 356.196625,121.130333 356.020691,124.280907 
	C355.808075,128.087799 358.201782,128.041336 360.879547,128.045532 
	C363.558014,128.049728 365.908234,128.095367 365.775055,124.300079 
	C365.605957,119.481750 365.921204,114.643456 365.678772,109.831337 
	C365.276428,101.844704 357.249420,97.499626 350.127014,101.294693 
	C348.700714,102.054665 347.402496,103.055016 347.050323,103.285805 
	C342.844910,101.994080 339.644043,100.364418 336.353058,100.155746 
	C331.732910,99.862770 327.007446,100.380119 322.412140,101.096733 
	C321.139313,101.295212 319.275665,103.382271 319.209259,104.680939 
	C318.878174,111.151840 319.191132,117.652725 319.002106,124.135025 
	C318.895264,127.798820 320.915680,128.050766 323.733093,128.065903 
	C326.705048,128.081863 329.009613,127.917770 328.793030,123.946129 
	C328.585083,120.133331 328.380402,116.227699 329.008575,112.503593 
	C329.294708,110.807373 331.590118,109.450073 332.974182,107.939056 
	C334.425598,109.399323 336.793671,110.673965 337.134888,112.359055 
	C337.815399,115.719543 337.537903,119.312950 337.367493,122.796036 
	C337.191803,126.386940 337.985870,128.179230 342.255890,128.171036 
	C346.556854,128.162781 347.305420,126.302345 347.083496,122.745453 
	C346.907745,119.928711 346.988342,117.089470 347.080597,114.264328 
	C347.173920,111.406097 347.148956,108.250877 351.117004,107.990723 
	C355.264008,107.718819 356.023010,110.560982 356.040924,114.800842 
M283.920410,177.849075 
	C282.909149,176.876938 281.981232,175.184174 280.872375,175.055923 
	C275.750519,174.463562 270.580933,174.106705 265.423584,174.039673 
	C257.419678,173.935608 251.588776,180.719894 252.001617,189.318787 
	C252.394592,197.504456 259.359192,204.484787 266.647461,202.621902 
	C271.218658,201.453491 275.416199,202.031769 279.796814,201.986664 
	C281.049469,201.973770 282.299103,201.671890 283.940643,201.449661 
	C283.940643,193.677917 283.940643,186.232132 283.920410,177.849075 
M198.490219,84.027168 
	C194.503860,84.027451 190.516373,84.085793 186.531494,84.008980 
	C183.536911,83.951263 181.076462,83.813950 181.015671,88.200447 
	C180.957062,92.430389 182.762726,93.483841 186.368256,93.000755 
	C190.373199,92.464157 191.783005,94.313721 191.450439,98.122498 
	C191.277725,100.100479 191.423325,102.106178 191.423447,104.099350 
	C191.423874,111.865646 191.423615,119.631950 191.423615,127.474159 
	C193.082520,127.718704 194.036438,127.946777 194.998230,127.987099 
	C201.845016,128.274124 201.852051,128.261917 201.859421,121.336281 
	C201.867538,113.695778 202.040344,106.049393 201.789337,98.417152 
	C201.658859,94.449593 202.689728,92.389847 207.008911,92.995049 
	C210.369202,93.465889 212.168716,92.549683 212.163651,88.508934 
	C212.158524,84.437454 210.298462,83.765175 206.956146,83.995239 
	C204.476471,84.165939 201.975525,84.027786 198.490219,84.027168 
M371.210052,107.895470 
	C368.257416,115.694878 369.851166,121.972755 375.814270,126.031937 
	C382.364838,130.491013 392.504181,129.760086 398.101807,124.425240 
	C403.770477,119.022614 403.876434,110.293579 398.340240,104.775650 
	C390.940002,97.399811 378.803986,98.529999 371.210052,107.895470 
M235.436905,128.247543 
	C241.464142,127.154869 244.189255,123.194145 244.538925,117.418663 
	C244.779678,113.441559 244.506012,109.431404 244.788971,105.459297 
	C245.073151,101.470215 243.074860,100.815178 239.668808,100.836205 
	C236.399460,100.856384 234.702438,101.630814 234.903763,105.296646 
	C235.103683,108.936592 235.007660,112.618439 234.698471,116.252739 
	C234.442886,119.257103 232.600052,121.672661 229.474640,120.762199 
	C227.616318,120.220848 225.441818,117.965012 224.971252,116.088379 
	C224.183441,112.946472 224.479218,109.484207 224.624481,106.170166 
	C224.781067,102.598488 224.021255,100.759460 219.741257,100.768570 
	C215.431824,100.777740 214.727402,102.679489 214.919739,106.220764 
	C215.099808,109.536720 214.908218,112.871025 214.975113,116.195343 
	C215.131165,123.949333 218.063339,127.517258 225.721512,128.619537 
	C228.623566,129.037231 231.656403,128.546249 235.436905,128.247543 
M229.828629,201.977921 
	C238.310349,204.242920 244.643433,202.205231 248.600845,195.729813 
	C245.724228,193.786972 243.352890,191.918640 239.337921,194.307404 
	C235.076294,196.842957 231.549469,194.863373 230.613907,190.370773 
	C231.093185,190.257187 231.572327,190.050766 232.054153,190.044327 
	C235.542160,189.997772 239.030670,189.980011 242.519058,189.975021 
	C250.181824,189.964066 251.845810,187.192551 247.644943,180.588333 
	C246.223999,178.354446 243.808121,176.331131 241.384125,175.235901 
	C233.790009,171.804703 224.905045,175.152115 221.393097,182.318863 
	C217.793961,189.663559 220.759888,197.151932 229.828629,201.977921 
M291.905518,123.988152 
	C292.697723,125.043236 293.338654,126.823021 294.308838,127.025589 
	C298.132538,127.823975 302.095795,128.704987 305.939117,128.464691 
	C310.564667,128.175522 314.211456,125.692680 314.646515,120.465675 
	C315.083496,115.215302 311.720581,112.746155 307.372406,111.037498 
	C305.760162,110.403961 304.282532,109.427795 302.252319,108.346184 
	C306.144592,105.151230 314.014038,111.214409 313.212402,101.850029 
	C308.263794,99.442802 303.088440,99.083534 297.971863,101.374123 
	C291.931122,104.078445 291.302429,111.140289 296.693604,114.964516 
	C298.432373,116.197914 300.571503,116.854118 302.394318,117.988380 
	C303.097473,118.425957 303.430664,119.458191 303.932404,120.219490 
	C303.000275,120.718979 301.941956,121.782990 301.160492,121.608353 
	C299.107849,121.149651 297.175812,120.151505 294.860443,119.235672 
	C293.942688,120.655258 293.062103,122.017357 291.905518,123.988152 
M290.263672,180.499817 
	C290.264893,186.163895 290.413849,191.833221 290.212097,197.490067 
	C290.090332,200.903275 291.184540,202.519989 294.748291,202.045746 
	C296.327240,201.835617 297.929047,201.797348 299.944153,201.650116 
	C299.944153,187.202545 299.927094,173.238190 299.955444,159.273926 
	C299.963104,155.501907 297.226135,156.250336 295.009918,156.168182 
	C292.618042,156.079514 290.212616,155.895401 290.259186,159.509644 
	C290.344971,166.171997 290.271362,172.836395 290.263672,180.499817 
M264.063904,101.055885 
	C262.390228,101.781685 261.352386,103.915146 258.801666,101.408401 
	C256.583252,99.228249 250.478470,101.056381 250.425812,103.254349 
	C250.232162,111.336266 250.348999,119.425613 250.348999,127.367043 
	C259.733154,128.962036 259.945801,128.784302 259.969360,120.419861 
	C259.975891,118.093880 259.862152,115.742729 260.156433,113.448387 
	C260.564117,110.270004 262.666382,107.561432 265.749908,108.383415 
	C272.064026,110.066582 272.487000,105.838997 274.209320,100.761833 
	C270.641449,100.761833 267.697388,100.761833 264.063904,101.055885 
M277.094055,102.922600 
	C277.054230,109.908089 277.138214,116.897430 276.921509,123.877426 
	C276.815765,127.283386 278.301819,128.087067 281.394714,128.074631 
	C284.538635,128.061966 286.448883,127.543968 286.293762,123.753571 
	C286.069489,118.273041 286.254669,112.776268 286.241028,107.286476 
	C286.223907,100.393150 284.329376,99.284004 277.094055,102.922600 
M287.235199,90.951660 
	C287.058533,85.535461 283.557190,82.381546 279.757111,84.620033 
	C278.100800,85.595688 276.511200,88.150871 276.496796,90.001213 
	C276.484406,91.590385 278.441772,93.912689 280.088654,94.637947 
	C282.949432,95.897789 285.566162,94.671974 287.235199,90.951660 
z"/>
<path fill="#F9FCFB" opacity="1.000000" stroke="none" 
	d="
M170.572418,139.000092 
	C170.572235,158.331192 170.376083,177.165573 170.689850,195.991425 
	C170.787140,201.828720 168.463211,205.712708 163.685883,208.115692 
	C148.245422,215.882278 132.557098,223.163574 117.215523,231.116562 
	C107.196960,236.310104 97.869514,235.382721 88.173851,230.481689 
	C73.927254,223.280212 59.487831,216.460739 45.147400,209.444092 
	C38.491879,206.187607 36.000816,201.225082 36.060368,193.435089 
	C36.438690,143.943863 36.337997,94.447983 36.139751,44.954670 
	C36.116226,39.080456 38.066368,35.148579 42.916706,32.147274 
	C60.555363,21.232780 79.387047,12.832814 98.860916,5.893750 
	C101.878197,4.818613 106.116661,4.854751 109.012756,6.135466 
	C126.352180,13.803323 143.487244,21.936552 160.641113,30.019218 
	C167.974823,33.474762 170.945114,38.894806 170.788193,47.514557 
	C170.236252,77.834328 170.573318,108.170280 170.572418,139.000092 
M102.261620,71.916992 
	C81.510567,65.284279 62.161427,55.534214 43.102871,44.691059 
	C42.910995,45.764294 42.747562,46.252151 42.747360,46.740074 
	C42.726498,96.702576 42.711792,146.665070 42.743778,196.627563 
	C42.744591,197.891785 42.836536,199.770935 43.618046,200.318573 
	C48.232681,203.552155 53.064251,206.476151 58.812965,210.134460 
	C58.812965,198.995239 58.812965,189.550690 58.812965,180.174438 
	C59.498745,180.055481 59.892323,179.850189 60.128433,179.965973 
	C69.688324,184.654434 79.275078,189.292694 88.724342,194.195724 
	C89.787720,194.747498 90.556831,196.795700 90.616638,198.186325 
	C90.838272,203.339630 90.705994,208.508163 90.706085,213.670975 
	C90.706291,225.772659 90.706146,225.772659 103.160095,228.811920 
	C103.471214,228.734985 103.782333,228.658051 104.901176,228.546219 
	C124.459419,222.316406 142.653427,213.145691 160.315567,202.830780 
	C163.121246,201.192230 164.255478,198.959763 164.246307,195.484741 
	C164.117386,146.682281 164.161697,97.879379 164.143539,49.076588 
	C164.143036,47.708771 163.917175,46.341030 163.763672,44.602833 
	C144.352600,55.907021 124.820930,65.414055 103.500587,72.090492 
	C103.325348,72.115463 103.150101,72.140427 102.261620,71.916992 
M138.684372,35.783676 
	C127.953613,30.977573 117.260902,26.082561 106.452766,21.457272 
	C104.750816,20.728930 102.434898,20.805834 100.558342,21.218122 
	C89.220169,23.709179 78.664322,28.169245 69.184723,34.887630 
	C63.721600,38.759460 63.490746,41.931141 69.340302,44.929375 
	C79.497673,50.135601 90.177376,54.331749 100.701950,58.800953 
	C101.984497,59.345573 103.740486,59.295670 105.141739,58.958668 
	C117.216255,56.054787 128.538879,51.361725 138.757553,44.222961 
	C142.143646,41.857426 142.969727,39.133827 138.684372,35.783676 
M84.158180,214.813171 
	C84.161758,210.496094 84.248573,206.176453 84.114891,201.863632 
	C84.077911,200.670929 83.735306,198.854568 82.936760,198.420074 
	C77.241196,195.321152 71.391197,192.506088 65.267410,189.438980 
	C64.138931,207.391022 64.138069,207.392761 79.138992,214.832764 
	C80.327721,215.422302 81.510567,216.052063 82.760742,216.469818 
	C83.082008,216.577194 83.649445,215.947891 84.158180,214.813171 
z"/>
<path fill="#08ABA3" opacity="1.000000" stroke="none" 
	d="
M208.359070,160.465652 
	C216.814850,167.653000 215.898529,176.707886 205.621765,184.413803 
	C210.177017,189.947983 214.732330,195.482224 219.676682,201.489136 
	C212.136322,202.726212 205.974640,202.974167 202.076614,195.508896 
	C200.368698,192.237961 197.553818,189.545013 194.214905,186.941711 
	C194.214905,191.657501 194.214905,196.373306 194.214905,201.543945 
	C190.649551,201.543945 187.640137,201.543945 183.955627,201.543945 
	C183.955627,193.438660 183.953949,185.496414 183.956207,177.554184 
	C183.957733,172.226822 183.818649,166.892227 184.081192,161.577606 
	C184.140442,160.378448 185.673126,158.202820 186.416351,158.249435 
	C193.638763,158.702469 200.837494,159.533005 208.359070,160.465652 
M202.948898,173.957001 
	C203.220871,167.523422 201.409149,165.895081 193.653824,166.688110 
	C194.183243,170.262802 194.710129,173.820389 195.237030,177.377960 
	C197.710587,176.490845 200.184158,175.603745 202.948898,173.957001 
z"/>
<path fill="#FA7C4E" opacity="1.000000" stroke="none" 
	d="
M356.037537,114.345093 
	C356.023010,110.560982 355.264008,107.718819 351.117004,107.990723 
	C347.148956,108.250877 347.173920,111.406097 347.080597,114.264328 
	C346.988342,117.089470 346.907745,119.928711 347.083496,122.745453 
	C347.305420,126.302345 346.556854,128.162781 342.255890,128.171036 
	C337.985870,128.179230 337.191803,126.386940 337.367493,122.796036 
	C337.537903,119.312950 337.815399,115.719543 337.134888,112.359055 
	C336.793671,110.673965 334.425598,109.399323 332.974182,107.939056 
	C331.590118,109.450073 329.294708,110.807373 329.008575,112.503593 
	C328.380402,116.227699 328.585083,120.133331 328.793030,123.946129 
	C329.009613,127.917770 326.705048,128.081863 323.733093,128.065903 
	C320.915680,128.050766 318.895264,127.798820 319.002106,124.135025 
	C319.191132,117.652725 318.878174,111.151840 319.209259,104.680939 
	C319.275665,103.382271 321.139313,101.295212 322.412140,101.096733 
	C327.007446,100.380119 331.732910,99.862770 336.353058,100.155746 
	C339.644043,100.364418 342.844910,101.994080 347.050323,103.285805 
	C347.402496,103.055016 348.700714,102.054665 350.127014,101.294693 
	C357.249420,97.499626 365.276428,101.844704 365.678772,109.831337 
	C365.921204,114.643456 365.605957,119.481750 365.775055,124.300079 
	C365.908234,128.095367 363.558014,128.049728 360.879547,128.045532 
	C358.201782,128.041336 355.808075,128.087799 356.020691,124.280907 
	C356.196625,121.130333 356.046539,117.961555 356.037537,114.345093 
z"/>
<path fill="#09ABA3" opacity="1.000000" stroke="none" 
	d="
M283.930542,178.317719 
	C283.940643,186.232132 283.940643,193.677917 283.940643,201.449661 
	C282.299103,201.671890 281.049469,201.973770 279.796814,201.986664 
	C275.416199,202.031769 271.218658,201.453491 266.647461,202.621902 
	C259.359192,204.484787 252.394592,197.504456 252.001617,189.318787 
	C251.588776,180.719894 257.419678,173.935608 265.423584,174.039673 
	C270.580933,174.106705 275.750519,174.463562 280.872375,175.055923 
	C281.981232,175.184174 282.909149,176.876938 283.930542,178.317719 
M263.185181,184.822708 
	C263.343536,187.454391 262.776520,190.481827 263.919342,192.576401 
	C264.661591,193.936859 268.252716,194.906113 269.921051,194.292679 
	C271.842682,193.586075 273.926666,191.108185 274.307892,189.091064 
	C274.642090,187.322693 273.202393,184.575974 271.684265,183.243576 
	C269.066895,180.946457 266.102295,181.807571 263.185181,184.822708 
z"/>
<path fill="#FC7B4C" opacity="1.000000" stroke="none" 
	d="
M198.987137,84.027191 
	C201.975525,84.027786 204.476471,84.165939 206.956146,83.995239 
	C210.298462,83.765175 212.158524,84.437454 212.163651,88.508934 
	C212.168716,92.549683 210.369202,93.465889 207.008911,92.995049 
	C202.689728,92.389847 201.658859,94.449593 201.789337,98.417152 
	C202.040344,106.049393 201.867538,113.695778 201.859421,121.336281 
	C201.852051,128.261917 201.845016,128.274124 194.998230,127.987099 
	C194.036438,127.946777 193.082520,127.718704 191.423615,127.474159 
	C191.423615,119.631950 191.423874,111.865646 191.423447,104.099350 
	C191.423325,102.106178 191.277725,100.100479 191.450439,98.122498 
	C191.783005,94.313721 190.373199,92.464157 186.368256,93.000755 
	C182.762726,93.483841 180.957062,92.430389 181.015671,88.200447 
	C181.076462,83.813950 183.536911,83.951263 186.531494,84.008980 
	C190.516373,84.085793 194.503860,84.027451 198.987137,84.027191 
z"/>
<path fill="#FC7B4D" opacity="1.000000" stroke="none" 
	d="
M371.404114,107.580750 
	C378.803986,98.529999 390.940002,97.399811 398.340240,104.775650 
	C403.876434,110.293579 403.770477,119.022614 398.101807,124.425240 
	C392.504181,129.760086 382.364838,130.491013 375.814270,126.031937 
	C369.851166,121.972755 368.257416,115.694878 371.404114,107.580750 
M389.325500,109.099716 
	C384.409393,107.399017 380.348450,108.850815 380.221558,112.972458 
	C380.149872,115.302261 381.569366,118.811745 383.374390,119.744781 
	C385.158661,120.667114 389.042633,119.824066 390.631500,118.311775 
	C393.290802,115.780617 392.730774,112.299538 389.325500,109.099716 
z"/>
<path fill="#FB7B4D" opacity="1.000000" stroke="none" 
	d="
M235.033264,128.358490 
	C231.656403,128.546249 228.623566,129.037231 225.721512,128.619537 
	C218.063339,127.517258 215.131165,123.949333 214.975113,116.195343 
	C214.908218,112.871025 215.099808,109.536720 214.919739,106.220764 
	C214.727402,102.679489 215.431824,100.777740 219.741257,100.768570 
	C224.021255,100.759460 224.781067,102.598488 224.624481,106.170166 
	C224.479218,109.484207 224.183441,112.946472 224.971252,116.088379 
	C225.441818,117.965012 227.616318,120.220848 229.474640,120.762199 
	C232.600052,121.672661 234.442886,119.257103 234.698471,116.252739 
	C235.007660,112.618439 235.103683,108.936592 234.903763,105.296646 
	C234.702438,101.630814 236.399460,100.856384 239.668808,100.836205 
	C243.074860,100.815178 245.073151,101.470215 244.788971,105.459297 
	C244.506012,109.431404 244.779678,113.441559 244.538925,117.418663 
	C244.189255,123.194145 241.464142,127.154869 235.033264,128.358490 
z"/>
<path fill="#09ABA3" opacity="1.000000" stroke="none" 
	d="
M229.455109,201.854294 
	C220.759888,197.151932 217.793961,189.663559 221.393097,182.318863 
	C224.905045,175.152115 233.790009,171.804703 241.384125,175.235901 
	C243.808121,176.331131 246.223999,178.354446 247.644943,180.588333 
	C251.845810,187.192551 250.181824,189.964066 242.519058,189.975021 
	C239.030670,189.980011 235.542160,189.997772 232.054153,190.044327 
	C231.572327,190.050766 231.093185,190.257187 230.613907,190.370773 
	C231.549469,194.863373 235.076294,196.842957 239.337921,194.307404 
	C243.352890,191.918640 245.724228,193.786972 248.600845,195.729813 
	C244.643433,202.205231 238.310349,204.242920 229.455109,201.854294 
M233.238922,180.433014 
	C232.223404,181.452194 231.207886,182.471390 229.366989,184.318939 
	C233.720825,184.318939 236.670944,184.318939 239.975830,184.318939 
	C239.116058,180.474564 236.830322,179.883820 233.238922,180.433014 
z"/>
<path fill="#FB7C4D" opacity="1.000000" stroke="none" 
	d="
M292.043518,123.683800 
	C293.062103,122.017357 293.942688,120.655258 294.860443,119.235672 
	C297.175812,120.151505 299.107849,121.149651 301.160492,121.608353 
	C301.941956,121.782990 303.000275,120.718979 303.932404,120.219490 
	C303.430664,119.458191 303.097473,118.425957 302.394318,117.988380 
	C300.571503,116.854118 298.432373,116.197914 296.693604,114.964516 
	C291.302429,111.140289 291.931122,104.078445 297.971863,101.374123 
	C303.088440,99.083534 308.263794,99.442802 313.212402,101.850029 
	C314.014038,111.214409 306.144592,105.151230 302.252319,108.346184 
	C304.282532,109.427795 305.760162,110.403961 307.372406,111.037498 
	C311.720581,112.746155 315.083496,115.215302 314.646515,120.465675 
	C314.211456,125.692680 310.564667,128.175522 305.939117,128.464691 
	C302.095795,128.704987 298.132538,127.823975 294.308838,127.025589 
	C293.338654,126.823021 292.697723,125.043236 292.043518,123.683800 
z"/>
<path fill="#0FABA3" opacity="1.000000" stroke="none" 
	d="
M290.263916,179.999878 
	C290.271362,172.836395 290.344971,166.171997 290.259186,159.509644 
	C290.212616,155.895401 292.618042,156.079514 295.009918,156.168182 
	C297.226135,156.250336 299.963104,155.501907 299.955444,159.273926 
	C299.927094,173.238190 299.944153,187.202545 299.944153,201.650116 
	C297.929047,201.797348 296.327240,201.835617 294.748291,202.045746 
	C291.184540,202.519989 290.090332,200.903275 290.212097,197.490067 
	C290.413849,191.833221 290.264893,186.163895 290.263916,179.999878 
z"/>
<path fill="#F97C4F" opacity="1.000000" stroke="none" 
	d="
M264.408630,100.908859 
	C267.697388,100.761833 270.641449,100.761833 274.209320,100.761833 
	C272.487000,105.838997 272.064026,110.066582 265.749908,108.383415 
	C262.666382,107.561432 260.564117,110.270004 260.156433,113.448387 
	C259.862152,115.742729 259.975891,118.093880 259.969360,120.419861 
	C259.945801,128.784302 259.733154,128.962036 250.348999,127.367043 
	C250.348999,119.425613 250.232162,111.336266 250.425812,103.254349 
	C250.478470,101.056381 256.583252,99.228249 258.801666,101.408401 
	C261.352386,103.915146 262.390228,101.781685 264.408630,100.908859 
z"/>
<path fill="#FD7A4B" opacity="1.000000" stroke="none" 
	d="
M277.218079,102.484055 
	C284.329376,99.284004 286.223907,100.393150 286.241028,107.286476 
	C286.254669,112.776268 286.069489,118.273041 286.293762,123.753571 
	C286.448883,127.543968 284.538635,128.061966 281.394714,128.074631 
	C278.301819,128.087067 276.815765,127.283386 276.921509,123.877426 
	C277.138214,116.897430 277.054230,109.908089 277.218079,102.484055 
z"/>
<path fill="#FA7C4E" opacity="1.000000" stroke="none" 
	d="
M287.121887,91.301453 
	C285.566162,94.671974 282.949432,95.897789 280.088654,94.637947 
	C278.441772,93.912689 276.484406,91.590385 276.496796,90.001213 
	C276.511200,88.150871 278.100800,85.595688 279.757111,84.620033 
	C283.557190,82.381546 287.058533,85.535461 287.121887,91.301453 
z"/>
<path fill="#08ACA4" opacity="1.000000" stroke="none" 
	d="
M104.026489,72.164238 
	C124.820930,65.414055 144.352600,55.907021 163.763672,44.602833 
	C163.917175,46.341030 164.143036,47.708771 164.143539,49.076588 
	C164.161697,97.879379 164.117386,146.682281 164.246307,195.484741 
	C164.255478,198.959763 163.121246,201.192230 160.315567,202.830780 
	C142.653427,213.145691 124.459419,222.316406 104.477936,228.056824 
	C104.045288,175.766373 104.035889,123.965309 104.026489,72.164238 
M138.689301,121.447769 
	C138.689301,124.541168 138.689301,127.634567 138.689301,131.579041 
	C145.052826,128.399719 150.665924,125.671135 156.181122,122.757248 
	C156.999023,122.325111 157.834290,121.026474 157.849380,120.115265 
	C157.979980,112.230553 157.924591,104.342773 157.924591,95.824669 
	C155.572479,96.968834 153.913635,98.138962 152.075546,98.610710 
	C140.481644,101.586311 136.454681,109.081528 138.689301,121.447769 
M106.694809,182.250336 
	C106.914673,183.257385 107.134537,184.264450 107.434074,185.636429 
	C113.228157,182.743210 118.571846,180.139252 123.835602,177.382690 
	C124.704720,176.927551 125.799911,175.814713 125.815285,174.987701 
	C125.964142,166.977859 125.904655,158.964157 125.904655,150.173569 
	C119.544762,153.365524 114.033379,155.964951 108.728287,158.933075 
	C107.650864,159.535858 106.829163,161.511154 106.782806,162.883865 
	C106.575691,169.017136 106.692093,175.161362 106.694809,182.250336 
M149.732574,138.217163 
	C146.916016,139.634964 144.015869,140.914139 141.323410,142.537735 
	C140.222107,143.201843 138.858047,144.591293 138.827866,145.684311 
	C138.613373,153.446808 138.713623,161.218002 138.713623,169.997406 
	C145.239243,166.735306 150.978378,163.905701 156.660873,160.966553 
	C157.246567,160.663620 157.839584,159.710648 157.846207,159.053436 
	C157.927017,151.022430 157.898758,142.990311 157.898758,134.193481 
	C154.811737,135.737289 152.624573,136.831070 149.732574,138.217163 
M113.604462,144.136658 
	C116.871468,142.499481 120.211960,140.988724 123.365326,139.156036 
	C124.458344,138.520798 125.787018,137.105560 125.816017,136.014893 
	C126.025131,128.150803 125.928070,120.278580 125.928070,111.802696 
	C119.732872,114.855133 114.237068,117.495789 108.824509,120.297264 
	C107.942558,120.753754 106.850624,121.910385 106.834549,122.761887 
	C106.683228,130.777924 106.744637,138.797958 106.744637,147.492340 
	C109.402214,146.190140 111.158600,145.329529 113.604462,144.136658 
M114.658279,105.142746 
	C118.363098,103.299759 122.067909,101.456772 125.479248,99.759781 
	C125.479248,91.012062 125.479248,82.524422 125.479248,73.594872 
	C119.616333,76.543594 114.263252,79.149078 109.015900,81.952484 
	C108.034264,82.476921 106.843979,83.779816 106.822273,84.747528 
	C106.645058,92.646896 106.722481,100.551987 106.722481,109.081390 
	C109.606155,107.663879 111.803734,106.583633 114.658279,105.142746 
M143.859848,64.413475 
	C142.152176,65.773560 139.058884,67.047379 138.967941,68.508110 
	C138.479095,76.360802 138.736847,84.259979 138.736847,93.109283 
	C145.229340,89.858513 150.823700,87.089371 156.373886,84.234344 
	C157.002441,83.911018 157.806549,83.109024 157.813370,82.520699 
	C157.907928,74.359688 157.877350,66.197235 157.877350,57.388237 
	C152.807693,59.929531 148.677307,61.999996 143.859848,64.413475 
z"/>
<path fill="#09ADA5" opacity="1.000000" stroke="none" 
	d="
M102.902985,228.582672 
	C90.706146,225.772659 90.706291,225.772659 90.706085,213.670975 
	C90.705994,208.508163 90.838272,203.339630 90.616638,198.186325 
	C90.556831,196.795700 89.787720,194.747498 88.724342,194.195724 
	C79.275078,189.292694 69.688324,184.654434 60.128433,179.965973 
	C59.892323,179.850189 59.498745,180.055481 58.812965,180.174438 
	C58.812965,189.550690 58.812965,198.995239 58.812965,210.134460 
	C53.064251,206.476151 48.232681,203.552155 43.618046,200.318573 
	C42.836536,199.770935 42.744591,197.891785 42.743778,196.627563 
	C42.711792,146.665070 42.726498,96.702576 42.747360,46.740074 
	C42.747562,46.252151 42.910995,45.764294 43.102871,44.691059 
	C62.161427,55.534214 81.510567,65.284279 102.625870,72.499207 
	C102.961075,124.915169 102.932030,176.748917 102.902985,228.582672 
M57.943291,138.629700 
	C55.160862,137.235504 52.378433,135.841293 49.007790,134.152344 
	C49.007790,142.821838 48.970390,150.763657 49.065063,158.703888 
	C49.074635,159.506821 49.679440,160.689667 50.349598,161.036880 
	C56.056160,163.993408 61.841793,166.797272 68.170364,169.927094 
	C68.170364,164.227463 67.570107,159.164566 68.304520,154.303299 
	C69.550751,146.054184 66.634659,141.049805 57.943291,138.629700 
M80.997711,171.245239 
	C81.448990,173.201080 81.268150,176.224792 82.459663,176.930099 
	C87.971008,180.192459 93.863785,182.810425 100.165855,185.929459 
	C100.165855,177.536209 100.189957,169.893570 100.134842,162.251480 
	C100.128082,161.314423 99.987793,159.830734 99.418259,159.529800 
	C93.527466,156.417038 87.535713,153.495361 80.997704,150.234039 
	C80.997704,157.667068 80.997704,163.986526 80.997711,171.245239 
M68.162621,119.478195 
	C68.161957,115.659866 68.307327,111.832642 68.075691,108.028381 
	C68.001823,106.815170 67.231651,105.107742 66.259941,104.574730 
	C60.803345,101.581657 55.187843,98.878296 49.011955,95.766373 
	C49.011955,104.291222 48.957901,112.188644 49.084370,120.083176 
	C49.099201,121.009056 49.885048,122.343430 50.692333,122.767921 
	C56.209263,125.668839 61.827488,128.377106 68.162628,131.519272 
	C68.162628,127.314995 68.162628,123.889603 68.162621,119.478195 
M87.323029,141.126312 
	C91.402924,143.169586 95.482819,145.212875 100.158203,147.554398 
	C100.158203,138.983444 100.203079,131.339584 100.102516,123.697655 
	C100.089661,122.720833 99.586929,121.251579 98.856850,120.862144 
	C93.107544,117.795418 87.247704,114.935898 81.003494,111.802635 
	C81.003494,118.892754 81.365715,125.241013 80.886589,131.525116 
	C80.516632,136.377441 81.816780,139.504913 87.323029,141.126312 
M56.385509,60.999680 
	C54.092072,59.906586 51.798630,58.813496 49.008102,57.483482 
	C49.008102,65.997688 48.942738,73.631630 49.084324,81.261726 
	C49.103741,82.308014 49.891453,83.820168 50.767612,84.292137 
	C56.257599,87.249557 61.873573,89.973099 68.161003,93.132362 
	C68.161003,88.036278 67.572357,83.526634 68.281067,79.231033 
	C69.854248,69.695755 66.311394,63.852070 56.385509,60.999680 
M81.003494,93.322197 
	C81.594841,95.682541 81.423668,99.231285 82.915367,100.188408 
	C88.141518,103.541679 93.940811,106.001694 100.155151,109.118240 
	C100.155151,100.637421 100.189484,92.865326 100.107071,85.094467 
	C100.097862,84.226585 99.665955,82.914520 99.023247,82.572136 
	C93.256966,79.500488 87.399529,76.599930 81.003494,73.362946 
	C81.003494,80.390686 81.003494,86.376602 81.003494,93.322197 
z"/>
<path fill="#FE7B4C" opacity="1.000000" stroke="none" 
	d="
M138.963287,36.010147 
	C142.969727,39.133827 142.143646,41.857426 138.757553,44.222961 
	C128.538879,51.361725 117.216255,56.054787 105.141739,58.958668 
	C103.740486,59.295670 101.984497,59.345573 100.701950,58.800953 
	C90.177376,54.331749 79.497673,50.135601 69.340302,44.929375 
	C63.490746,41.931141 63.721600,38.759460 69.184723,34.887630 
	C78.664322,28.169245 89.220169,23.709179 100.558342,21.218122 
	C102.434898,20.805834 104.750816,20.728930 106.452766,21.457272 
	C117.260902,26.082561 127.953613,30.977573 138.963287,36.010147 
z"/>
<path fill="#0CAEA6" opacity="1.000000" stroke="none" 
	d="
M84.130989,215.235107 
	C83.649445,215.947891 83.082008,216.577194 82.760742,216.469818 
	C81.510567,216.052063 80.327721,215.422302 79.138992,214.832764 
	C64.138069,207.392761 64.138931,207.391022 65.267410,189.438980 
	C71.391197,192.506088 77.241196,195.321152 82.936760,198.420074 
	C83.735306,198.854568 84.077911,200.670929 84.114891,201.863632 
	C84.248573,206.176453 84.161758,210.496094 84.130989,215.235107 
z"/>
<path fill="#2DABA5" opacity="1.000000" stroke="none" 
	d="
M103.031540,228.697296 
	C102.932030,176.748917 102.961075,124.915169 102.982483,72.623413 
	C103.150101,72.140427 103.325348,72.115463 103.763535,72.127365 
	C104.035889,123.965309 104.045288,175.766373 104.074074,228.074280 
	C103.782333,228.658051 103.471214,228.734985 103.031540,228.697296 
z"/>
<path fill="#9EA6A6" opacity="1.000000" stroke="none" 
	d="
M202.803314,174.336823 
	C200.184158,175.603745 197.710587,176.490845 195.237030,177.377960 
	C194.710129,173.820389 194.183243,170.262802 193.653824,166.688110 
	C201.409149,165.895081 203.220871,167.523422 202.803314,174.336823 
z"/>
<path fill="#9EA6A6" opacity="1.000000" stroke="none" 
	d="
M263.427124,184.517731 
	C266.102295,181.807571 269.066895,180.946457 271.684265,183.243576 
	C273.202393,184.575974 274.642090,187.322693 274.307892,189.091064 
	C273.926666,191.108185 271.842682,193.586075 269.921051,194.292679 
	C268.252716,194.906113 264.661591,193.936859 263.919342,192.576401 
	C262.776520,190.481827 263.343536,187.454391 263.427124,184.517731 
z"/>
<path fill="#A9A4A3" opacity="1.000000" stroke="none" 
	d="
M389.649536,109.323929 
	C392.730774,112.299538 393.290802,115.780617 390.631500,118.311775 
	C389.042633,119.824066 385.158661,120.667114 383.374390,119.744781 
	C381.569366,118.811745 380.149872,115.302261 380.221558,112.972458 
	C380.348450,108.850815 384.409393,107.399017 389.649536,109.323929 
z"/>
<path fill="#8CA7A6" opacity="1.000000" stroke="none" 
	d="
M233.601517,180.312881 
	C236.830322,179.883820 239.116058,180.474564 239.975830,184.318939 
	C236.670944,184.318939 233.720825,184.318939 229.366989,184.318939 
	C231.207886,182.471390 232.223404,181.452194 233.601517,180.312881 
z"/>
<path fill="#F8FDFC" opacity="1.000000" stroke="none" 
	d="
M138.689301,120.957817 
	C136.454681,109.081528 140.481644,101.586311 152.075546,98.610710 
	C153.913635,98.138962 155.572479,96.968834 157.924591,95.824669 
	C157.924591,104.342773 157.979980,112.230553 157.849380,120.115265 
	C157.834290,121.026474 156.999023,122.325111 156.181122,122.757248 
	C150.665924,125.671135 145.052826,128.399719 138.689301,131.579041 
	C138.689301,127.634567 138.689301,124.541168 138.689301,120.957817 
M144.972107,115.449646 
	C144.972107,117.186142 144.972107,118.922638 144.972107,120.827919 
	C152.194427,118.361740 153.175003,115.813911 150.759186,106.956902 
	C146.171219,107.473709 144.185806,109.970482 144.972107,115.449646 
z"/>
<path fill="#F8FDFD" opacity="1.000000" stroke="none" 
	d="
M106.693237,181.775970 
	C106.692093,175.161362 106.575691,169.017136 106.782806,162.883865 
	C106.829163,161.511154 107.650864,159.535858 108.728287,158.933075 
	C114.033379,155.964951 119.544762,153.365524 125.904655,150.173569 
	C125.904655,158.964157 125.964142,166.977859 125.815285,174.987701 
	C125.799911,175.814713 124.704720,176.927551 123.835602,177.382690 
	C118.571846,180.139252 113.228157,182.743210 107.434074,185.636429 
	C107.134537,184.264450 106.914673,183.257385 106.693237,181.775970 
M113.525826,163.569138 
	C113.303017,167.355484 113.080215,171.141815 112.838493,175.249619 
	C120.111847,172.750946 121.298431,169.456985 118.639297,161.009018 
	C117.146858,161.710159 115.675331,162.401489 113.525826,163.569138 
z"/>
<path fill="#F8FDFD" opacity="1.000000" stroke="none" 
	d="
M150.084991,138.071014 
	C152.624573,136.831070 154.811737,135.737289 157.898758,134.193481 
	C157.898758,142.990311 157.927017,151.022430 157.846207,159.053436 
	C157.839584,159.710648 157.246567,160.663620 156.660873,160.966553 
	C150.978378,163.905701 145.239243,166.735306 138.713623,169.997406 
	C138.713623,161.218002 138.613373,153.446808 138.827866,145.684311 
	C138.858047,144.591293 140.222107,143.201843 141.323410,142.537735 
	C144.015869,140.914139 146.916016,139.634964 150.084991,138.071014 
M144.963959,152.652954 
	C144.963959,154.727737 144.963959,156.802536 144.963959,159.011597 
	C152.314148,157.023392 152.978683,155.371735 150.868515,144.980499 
	C147.742416,146.354095 144.003006,146.872681 144.963959,152.652954 
z"/>
<path fill="#F8FCFC" opacity="1.000000" stroke="none" 
	d="
M113.259720,144.302795 
	C111.158600,145.329529 109.402214,146.190140 106.744637,147.492340 
	C106.744637,138.797958 106.683228,130.777924 106.834549,122.761887 
	C106.850624,121.910385 107.942558,120.753754 108.824509,120.297264 
	C114.237068,117.495789 119.732872,114.855133 125.928070,111.802696 
	C125.928070,120.278580 126.025131,128.150803 125.816017,136.014893 
	C125.787018,137.105560 124.458344,138.520798 123.365326,139.156036 
	C120.211960,140.988724 116.871468,142.499481 113.259720,144.302795 
M119.520607,132.675934 
	C119.520607,129.444702 119.520607,126.213470 119.520607,122.811943 
	C112.131676,125.034302 111.669243,126.223381 113.652725,137.268814 
	C115.688873,135.927063 117.546249,134.703110 119.520607,132.675934 
z"/>
<path fill="#FAFDFD" opacity="1.000000" stroke="none" 
	d="
M114.329796,105.323067 
	C111.803734,106.583633 109.606155,107.663879 106.722481,109.081390 
	C106.722481,100.551987 106.645058,92.646896 106.822273,84.747528 
	C106.843979,83.779816 108.034264,82.476921 109.015900,81.952484 
	C114.263252,79.149078 119.616333,76.543594 125.479248,73.594872 
	C125.479248,82.524422 125.479248,91.012062 125.479248,99.759781 
	C122.067909,101.456772 118.363098,103.299759 114.329796,105.323067 
M119.555038,86.250168 
	C118.911461,85.680557 117.808983,84.535660 117.693367,84.627892 
	C116.042717,85.944633 113.628098,87.195221 113.178391,88.924774 
	C112.433929,91.787933 112.975983,94.985596 112.975983,98.084526 
	C121.170921,97.428284 119.427872,91.736534 119.555038,86.250168 
z"/>
<path fill="#FAFDFD" opacity="1.000000" stroke="none" 
	d="
M144.203369,64.241974 
	C148.677307,61.999996 152.807693,59.929531 157.877350,57.388237 
	C157.877350,66.197235 157.907928,74.359688 157.813370,82.520699 
	C157.806549,83.109024 157.002441,83.911018 156.373886,84.234344 
	C150.823700,87.089371 145.229340,89.858513 138.736847,93.109283 
	C138.736847,84.259979 138.479095,76.360802 138.967941,68.508110 
	C139.058884,67.047379 142.152176,65.773560 144.203369,64.241974 
M144.991516,72.191902 
	C144.991516,75.435432 144.991516,78.678963 144.991516,82.011154 
	C151.999451,80.414200 153.563690,76.273163 150.461456,67.910744 
	C148.644043,69.082268 146.879089,70.219978 144.991516,72.191902 
z"/>
<path fill="#F9FDFD" opacity="1.000000" stroke="none" 
	d="
M58.280327,138.789734 
	C66.634659,141.049805 69.550751,146.054184 68.304520,154.303299 
	C67.570107,159.164566 68.170364,164.227463 68.170364,169.927094 
	C61.841793,166.797272 56.056160,163.993408 50.349598,161.036880 
	C49.679440,160.689667 49.074635,159.506821 49.065063,158.703888 
	C48.970390,150.763657 49.007790,142.821838 49.007790,134.152344 
	C52.378433,135.841293 55.160862,137.235504 58.280327,138.789734 
M59.998787,146.790131 
	C58.704853,146.213806 57.410919,145.637482 56.027149,145.021133 
	C54.152096,155.977295 55.010246,157.936447 62.520039,158.707535 
	C61.907558,154.725922 61.323318,150.927887 59.998787,146.790131 
z"/>
<path fill="#F9FDFD" opacity="1.000000" stroke="none" 
	d="
M80.997711,170.775604 
	C80.997704,163.986526 80.997704,157.667068 80.997704,150.234039 
	C87.535713,153.495361 93.527466,156.417038 99.418259,159.529800 
	C99.987793,159.830734 100.128082,161.314423 100.134842,162.251480 
	C100.189957,169.893570 100.165855,177.536209 100.165855,185.929459 
	C93.863785,182.810425 87.971008,180.192459 82.459663,176.930099 
	C81.268150,176.224792 81.448990,173.201080 80.997711,170.775604 
M89.093246,173.411972 
	C90.539833,174.044464 91.986427,174.676956 93.609619,175.386658 
	C94.773293,163.335159 94.739975,163.258087 87.051277,161.239502 
	C87.525040,165.351852 87.963608,169.158691 89.093246,173.411972 
z"/>
<path fill="#FCFEFE" opacity="1.000000" stroke="none" 
	d="
M68.162628,119.971199 
	C68.162628,123.889603 68.162628,127.314995 68.162628,131.519272 
	C61.827488,128.377106 56.209263,125.668839 50.692333,122.767921 
	C49.885048,122.343430 49.099201,121.009056 49.084370,120.083176 
	C48.957901,112.188644 49.011955,104.291222 49.011955,95.766373 
	C55.187843,98.878296 60.803345,101.581657 66.259941,104.574730 
	C67.231651,105.107742 68.001823,106.815170 68.075691,108.028381 
	C68.307327,111.832642 68.161957,115.659866 68.162628,119.971199 
M55.434036,116.646881 
	C57.255524,118.211128 59.077011,119.775368 61.356022,121.732521 
	C63.132748,109.573021 62.727177,108.602325 55.404312,106.973999 
	C55.404312,109.992332 55.404312,112.906013 55.434036,116.646881 
z"/>
<path fill="#FCFEFE" opacity="1.000000" stroke="none" 
	d="
M86.970505,140.982483 
	C81.816780,139.504913 80.516632,136.377441 80.886589,131.525116 
	C81.365715,125.241013 81.003494,118.892754 81.003494,111.802635 
	C87.247704,114.935898 93.107544,117.795418 98.856850,120.862144 
	C99.586929,121.251579 100.089661,122.720833 100.102516,123.697655 
	C100.203079,131.339584 100.158203,138.983444 100.158203,147.554398 
	C95.482819,145.212875 91.402924,143.169586 86.970505,140.982483 
M93.984848,132.318115 
	C94.308670,127.659645 94.327011,123.206474 87.839363,122.974930 
	C86.353859,134.067383 86.624893,134.702393 93.745888,136.590515 
	C93.827309,135.426056 93.905914,134.301819 93.984848,132.318115 
z"/>
<path fill="#FCFEFE" opacity="1.000000" stroke="none" 
	d="
M56.721947,61.174377 
	C66.311394,63.852070 69.854248,69.695755 68.281067,79.231033 
	C67.572357,83.526634 68.161003,88.036278 68.161003,93.132362 
	C61.873573,89.973099 56.257599,87.249557 50.767612,84.292137 
	C49.891453,83.820168 49.103741,82.308014 49.084324,81.261726 
	C48.942738,73.631630 49.008102,65.997688 49.008102,57.483482 
	C51.798630,58.813496 54.092072,59.906586 56.721947,61.174377 
M61.981129,77.319893 
	C62.622002,72.545067 61.574665,68.954338 55.892529,68.546623 
	C54.227585,79.417404 54.737640,80.600807 61.981087,82.141922 
	C61.981087,80.774841 61.981087,79.470886 61.981129,77.319893 
z"/>
<path fill="#FCFEFE" opacity="1.000000" stroke="none" 
	d="
M81.003494,92.842361 
	C81.003494,86.376602 81.003494,80.390686 81.003494,73.362946 
	C87.399529,76.599930 93.256966,79.500488 99.023247,82.572136 
	C99.665955,82.914520 100.097862,84.226585 100.107071,85.094467 
	C100.189484,92.865326 100.155151,100.637421 100.155151,109.118240 
	C93.940811,106.001694 88.141518,103.541679 82.915367,100.188408 
	C81.423668,99.231285 81.594841,95.682541 81.003494,92.842361 
M87.424065,93.724876 
	C89.210236,95.492775 90.996407,97.260674 93.390358,99.630127 
	C95.020660,86.886360 94.811432,86.389099 87.408394,84.504196 
	C87.408394,87.380539 87.408394,90.143265 87.424065,93.724876 
z"/>
<path fill="#19B2AB" opacity="1.000000" stroke="none" 
	d="
M144.972107,115.012764 
	C144.185806,109.970482 146.171219,107.473709 150.762115,106.959122 
	C153.175003,115.813911 152.194427,118.361740 144.972107,120.827919 
	C144.972107,118.922638 144.972107,117.186142 144.972107,115.012764 
z"/>
<path fill="#1DB3AC" opacity="1.000000" stroke="none" 
	d="
M113.864807,163.330978 
	C115.675331,162.401489 117.146858,161.710159 118.639297,161.009018 
	C121.298431,169.456985 120.111847,172.750946 112.838493,175.249619 
	C113.080215,171.141815 113.303017,167.355484 113.864807,163.330978 
z"/>
<path fill="#1DB3AC" opacity="1.000000" stroke="none" 
	d="
M144.963989,152.206726 
	C144.003006,146.872681 147.742416,146.354095 150.868515,144.980499 
	C152.978683,155.371735 152.314148,157.023392 144.963959,159.011597 
	C144.963959,156.802536 144.963959,154.727737 144.963989,152.206726 
z"/>
<path fill="#19B2AB" opacity="1.000000" stroke="none" 
	d="
M119.462120,133.077545 
	C117.546249,134.703110 115.688873,135.927063 113.652725,137.268814 
	C111.669243,126.223381 112.131676,125.034302 119.520607,122.811943 
	C119.520607,126.213470 119.520607,129.444702 119.462120,133.077545 
z"/>
<path fill="#19B2AB" opacity="1.000000" stroke="none" 
	d="
M119.561142,86.662415 
	C119.427872,91.736534 121.170921,97.428284 112.975983,98.084526 
	C112.975983,94.985596 112.433929,91.787933 113.178391,88.924774 
	C113.628098,87.195221 116.042717,85.944633 117.693367,84.627892 
	C117.808983,84.535660 118.911461,85.680557 119.561142,86.662415 
z"/>
<path fill="#19B2AB" opacity="1.000000" stroke="none" 
	d="
M145.052826,71.774796 
	C146.879089,70.219978 148.644043,69.082268 150.461456,67.910744 
	C153.563690,76.273163 151.999451,80.414200 144.991516,82.011154 
	C144.991516,78.678963 144.991516,75.435432 145.052826,71.774796 
z"/>
<path fill="#1FB4AD" opacity="1.000000" stroke="none" 
	d="
M60.368931,146.959991 
	C61.323318,150.927887 61.907558,154.725922 62.520039,158.707535 
	C55.010246,157.936447 54.152096,155.977295 56.027149,145.021133 
	C57.410919,145.637482 58.704853,146.213806 60.368931,146.959991 
z"/>
<path fill="#1FB4AD" opacity="1.000000" stroke="none" 
	d="
M88.747711,173.188751 
	C87.963608,169.158691 87.525040,165.351852 87.051277,161.239502 
	C94.739975,163.258087 94.773293,163.335159 93.609619,175.386658 
	C91.986427,174.676956 90.539833,174.044464 88.747711,173.188751 
z"/>
<path fill="#20B4AD" opacity="1.000000" stroke="none" 
	d="
M55.419174,116.233292 
	C55.404312,112.906013 55.404312,109.992332 55.404312,106.973999 
	C62.727177,108.602325 63.132748,109.573021 61.356022,121.732521 
	C59.077011,119.775368 57.255524,118.211128 55.419174,116.233292 
z"/>
<path fill="#20B4AD" opacity="1.000000" stroke="none" 
	d="
M93.984680,132.747849 
	C93.905914,134.301819 93.827309,135.426056 93.745888,136.590515 
	C86.624893,134.702393 86.353859,134.067383 87.839363,122.974930 
	C94.327011,123.206474 94.308670,127.659645 93.984680,132.747849 
z"/>
<path fill="#1EB4AC" opacity="1.000000" stroke="none" 
	d="
M61.981110,77.743408 
	C61.981087,79.470886 61.981087,80.774841 61.981087,82.141922 
	C54.737640,80.600807 54.227585,79.417404 55.892529,68.546623 
	C61.574665,68.954338 62.622002,72.545067 61.981110,77.743408 
z"/>
<path fill="#1EB4AC" opacity="1.000000" stroke="none" 
	d="
M87.416229,93.315430 
	C87.408394,90.143265 87.408394,87.380539 87.408394,84.504196 
	C94.811432,86.389099 95.020660,86.886360 93.390358,99.630127 
	C90.996407,97.260674 89.210236,95.492775 87.416229,93.315430 
z"/>
</svg>